<?xml version="1.0" encoding="iso-8859-1"?>
<!-- Generator: Adobe Illustrator 16.0.0, SVG Export Plug-In . SVG Version: 6.00 Build 0)  -->
<!DOCTYPE svg PUBLIC "-//W3C//DTD SVG 1.1//EN" "http://www.w3.org/Graphics/SVG/1.1/DTD/svg11.dtd">
<svg version="1.1" id="Layer_1" xmlns="http://www.w3.org/2000/svg" xmlns:xlink="http://www.w3.org/1999/xlink" x="0px" y="0px"
	 width="959.591px" height="153.484px" viewBox="0 0 959.591 153.484" style="enable-background:new 0 0 959.591 153.484;"
	 xml:space="preserve">
<g>
	<g>
		<path style="fill-rule:evenodd;clip-rule:evenodd;fill:#FFFFFF;" d="M53.972,6.957H0v143.89h53.972
			c19.747,0,36.648-7.025,50.705-21.082c14.126-14.125,21.188-31.097,21.188-50.915c0-19.747-7.063-36.648-21.188-50.705
			C90.621,14.02,73.719,6.957,53.972,6.957z M92.027,116.906c-10.613,10.611-23.297,15.916-38.055,15.916H17.92V24.877h36.052
			c14.758,0,27.442,5.308,38.055,15.918c10.61,10.613,15.917,23.297,15.917,38.055C107.945,93.608,102.638,106.293,92.027,116.906z
			 M148.424,87.916v62.932h18.026V87.916c0-7.94,2.81-14.722,8.433-20.345c5.622-5.622,12.403-8.433,20.345-8.433V41.112
			c-12.37,0-23.262,4.708-32.679,14.125C153.131,64.655,148.424,75.548,148.424,87.916z M217.682,150.847h17.921V42.903h-17.921
			V150.847z M217.682,24.877h17.921V6.957h-17.921V24.877z M305.808,133.561l-33.1-90.658h-19.08l39.214,107.944h25.932
			l39.214-107.944h-19.08L305.808,133.561z M534.348,59.243c-7.45-3.443-13.282-7.238-17.499-11.385
			c-4.497-4.567-6.747-10.049-6.747-16.444c0-6.465,2.268-11.947,6.8-16.445c4.533-4.497,9.996-6.747,16.393-6.747
			c6.395,0,11.84,2.25,16.34,6.747c2.529,2.53,4.355,5.307,5.481,8.328l7.589-2.952c-1.336-4.075-3.689-7.765-7.063-11.068
			C549.386,3.093,541.938,0,533.294,0c-8.786,0-16.253,3.093-22.401,9.276c-6.149,6.185-9.225,13.564-9.225,22.137
			c0,8.786,3.075,16.252,9.225,22.4c6.148,6.15,14.529,10.981,25.142,14.494c8.925,3.656,16.479,8.575,22.664,14.758
			c7.026,7.029,10.541,15.461,10.541,25.299c0,9.91-3.515,18.378-10.541,25.406c-7.028,7.027-15.495,10.541-25.404,10.541
			s-18.379-3.514-25.405-10.541c-6.045-5.973-9.488-13.001-10.331-21.084l-7.906,2.847c1.335,9.136,5.481,17.146,12.439,24.034
			c8.573,8.716,18.975,13.071,31.203,13.071c12.158,0,22.54-4.322,31.15-12.967c8.606-8.643,12.912-19.079,12.912-31.308
			c0-12.157-4.287-22.521-12.86-31.097C556.344,69.118,546.294,63.109,534.348,59.243z M689.202,97.614
			c0-12.157-4.393-22.665-13.177-31.519c-9.98-9.978-22.068-14.969-36.263-14.969c-14.057,0-26.091,4.991-36.104,14.969
			c-10.015,9.98-15.021,22.068-15.021,36.262c0,14.057,5.007,26.09,15.021,36.105c10.014,10.015,22.048,15.021,36.104,15.021
			c14.194,0,26.282-5.024,36.263-15.074c3.373-3.303,5.586-5.833,6.641-7.59l-8.96-3.163c-1.266,1.546-2.602,3.023-4.006,4.427
			c-8.294,8.294-18.272,12.44-29.938,12.44c-11.667,0-21.629-4.111-29.885-12.333c-8.26-8.223-12.387-18.166-12.387-29.834
			c0-1.687,0.105-3.267,0.315-4.743H689.202z M609.825,72.42c8.292-8.292,18.271-12.439,29.938-12.439
			c11.665,0,21.644,4.147,29.938,12.439c4.707,4.708,8.046,10.262,10.014,16.655h-80.325
			C601.426,82.961,604.904,77.411,609.825,72.42z M738.431,53.867c-10.119,0-18.975,3.795-26.564,11.385v-5.903h-8.434v91.499h8.434
			V79.799c1.405-3.232,3.618-6.359,6.642-9.382c5.621-5.411,12.262-8.117,19.923-8.117c7.73,0,14.405,2.74,20.028,8.222
			c5.621,5.481,8.433,12.123,8.433,19.923v60.401h8.329V89.602c-0.142-10.26-3.603-18.78-10.384-25.563
			C758.054,57.258,749.253,53.867,738.431,53.867z M820.759,93.081c-4.99-3.162-8.258-5.551-9.804-7.167
			c-2.671-2.67-4.005-5.868-4.005-9.594c0-3.724,1.334-6.921,4.005-9.592c2.67-2.67,5.868-4.006,9.593-4.006
			c3.796,0,6.853,1.196,9.173,3.585c2.319,2.39,3.794,5.938,4.426,10.646l7.274-2.952v-0.422c0-4.989-1.934-9.417-5.798-13.282
			c-4.006-4.006-9.031-6.009-15.075-6.009c-6.043,0-11.209,2.161-15.496,6.483c-4.286,4.322-6.43,9.505-6.43,15.548
			c0,6.045,2.144,11.21,6.43,15.497c2.743,2.74,7.66,6.043,14.759,9.908c6.043,3.866,10.05,6.782,12.018,8.749
			c3.724,3.655,5.586,8.048,5.586,13.177c0,5.271-1.862,9.751-5.586,13.44c-3.726,3.689-8.153,5.534-13.282,5.534
			c-5.131,0-9.54-1.845-13.229-5.534c-3.691-3.689-5.536-8.238-5.536-13.651l-8.326,2.108c0,6.325,2.634,12.141,7.905,17.446
			c5.271,5.308,11.665,7.96,19.186,7.96c7.519,0,13.915-2.652,19.187-7.96c5.27-5.306,7.905-11.754,7.905-19.344
			c0-7.379-2.636-13.737-7.905-19.08C834.358,101.198,828.7,97.37,820.759,93.081z M940.088,132.083
			c-8.293,8.294-18.271,12.44-29.938,12.44s-21.627-4.111-29.884-12.333c-8.259-8.223-12.387-18.166-12.387-29.834
			c0-1.687,0.105-3.267,0.315-4.743h91.396c0-12.157-4.393-22.665-13.177-31.519c-9.98-9.978-22.068-14.969-36.264-14.969
			c-14.057,0-26.089,4.991-36.104,14.969c-10.015,9.98-15.021,22.068-15.021,36.262c0,14.057,5.007,26.09,15.021,36.105
			c10.015,10.015,22.047,15.021,36.104,15.021c14.195,0,26.283-5.024,36.264-15.074c3.373-3.303,5.587-5.833,6.641-7.59l-8.96-3.163
			C942.829,129.203,941.494,130.68,940.088,132.083z M880.214,72.42c8.292-8.292,18.271-12.439,29.937-12.439
			s21.645,4.147,29.938,12.439c4.709,4.708,8.047,10.262,10.015,16.655h-80.325C871.814,82.961,875.294,77.411,880.214,72.42z
			 M448.243,124.362c-7.504,6.823-16.465,9.965-26.881,9.426c-10.067-0.52-18.526-4.352-25.375-11.496
			c-6.501-7.082-8.976-15.48-8.976-15.48c-0.122-0.455-0.231-0.905-0.338-1.354l26.76-0.008c4.024,4.126,10.469,5.187,15.694,2.175
			c3.129-1.804,5.211-4.718,6.046-7.956l39.938-23.059c-3.879-10.35-10.314-18.733-19.305-25.149
			c-8.987-6.484-18.969-10.011-29.943-10.578c-15.38-0.795-28.737,3.975-40.066,14.31c-11.324,10.195-17.385,23.008-18.185,38.436
			c-0.796,15.361,3.946,28.66,14.229,39.902c10.424,11.182,23.293,17.165,38.604,17.956c15.101,0.78,28.343-3.854,39.73-13.906
			c11.319-10.125,17.445-22.83,18.379-38.111l-21.039,12.121C455.455,116.356,452.365,120.614,448.243,124.362z M397.829,68.519
			c7.583-7.027,16.62-10.271,27.105-9.729c10.067,0.521,18.525,4.354,25.375,11.498l-23.949,13.819
			c-3.283-0.978-6.944-0.669-10.146,1.177c-1.076,0.62-2.021,1.378-2.842,2.229l-26.833-0.061
			C388.24,80.183,391.998,73.87,397.829,68.519z"/>
	</g>
</g>
</svg>
